<?xml version="1.0" encoding="UTF-8" standalone="no"?>
<!-- Creator: CorelDRAW X5 -->

<svg
   xmlns:dc="http://purl.org/dc/elements/1.1/"
   xmlns:cc="http://creativecommons.org/ns#"
   xmlns:rdf="http://www.w3.org/1999/02/22-rdf-syntax-ns#"
   xmlns:svg="http://www.w3.org/2000/svg"
   xmlns="http://www.w3.org/2000/svg"
   xmlns:sodipodi="http://sodipodi.sourceforge.net/DTD/sodipodi-0.dtd"
   xmlns:inkscape="http://www.inkscape.org/namespaces/inkscape"
   xml:space="preserve"
   width="36.7817mm"
   height="35.8864mm"
   style="shape-rendering:geometricPrecision; text-rendering:geometricPrecision; image-rendering:optimizeQuality; fill-rule:evenodd; clip-rule:evenodd"
   viewBox="0 0 23.0749 22.5132"
   id="svg2"
   version="1.1"
   inkscape:version="0.48.3.1 r9886"
   sodipodi:docname="Dodecahedron_Dodecahedron.svg"><metadata
   id="metadata14"><rdf:RDF><cc:Work
       rdf:about=""><dc:format>image/svg+xml</dc:format><dc:type
         rdf:resource="http://purl.org/dc/dcmitype/StillImage" /><dc:title></dc:title></cc:Work></rdf:RDF></metadata><sodipodi:namedview
   pagecolor="#ffffff"
   bordercolor="#666666"
   borderopacity="1"
   objecttolerance="10"
   gridtolerance="10"
   guidetolerance="10"
   inkscape:pageopacity="0"
   inkscape:pageshadow="2"
   inkscape:window-width="1920"
   inkscape:window-height="1056"
   id="namedview12"
   showgrid="false"
   inkscape:zoom="7.4239206"
   inkscape:cx="26.71575"
   inkscape:cy="71.47438"
   inkscape:window-x="0"
   inkscape:window-y="24"
   inkscape:window-maximized="1"
   inkscape:current-layer="svg2" />
 <defs
   id="defs4">
  <style
   type="text/css"
   id="style6">
   
    .str0 {stroke:#2B2A29;stroke-width:0.125469}
    .fil0 {fill:#2B2A29}
   
  </style>
 
</defs>
 
<g
   id="g3981"
   inkscape:export-filename="/home/revil/Escritorio/logo.png"
   inkscape:export-xdpi="127.18645"
   inkscape:export-ydpi="127.18645"><text
     transform="scale(1.2257452,0.81583024)"
     sodipodi:linespacing="125%"
     id="text3939"
     y="12.387829"
     x="-6.1824827"
     style="font-size:5.10560036px;font-style:normal;font-weight:normal;line-height:125%;letter-spacing:0px;word-spacing:0px;fill:#000080;fill-opacity:1;stroke:none;font-family:Sans"
     xml:space="preserve"><tspan
       style="font-style:normal;font-variant:normal;font-weight:bold;font-stretch:normal;fill:#000080;font-family:Arial;-inkscape-font-specification:Arial Bold"
       y="12.387829"
       x="-6.1824827"
       id="tspan3941"
       sodipodi:role="line"><tspan
   id="tspan3943"
   style="font-style:normal;font-variant:normal;font-weight:bold;font-stretch:normal;fill:#000080;font-family:Arial;-inkscape-font-specification:Arial Bold">EV   </tspan>GTK</tspan></text>
<path
     id="path3100"
     transform="matrix(0.17705135,0,0,0.17705135,0,-1.7778e-5)"
     d="M 21.5 33.53125 L 20.65625 36.5 C 20.182364 38.125997 19.781815 39.4535 19.78125 39.46875 C 19.780685 39.48401 21.55344 41.353428 23.71875 43.625 C 25.884059 45.896573 27.664959 47.788532 27.6875 47.8125 C 27.746342 47.875072 34.218612 46.893566 34.28125 46.8125 C 34.30997 46.775331 33.472097 44.760243 32.4375 42.34375 L 30.5625 37.96875 L 26.375 35.875 C 24.063126 34.728538 22.022862 33.724112 21.84375 33.65625 L 21.5 33.53125 z M 21 33.71875 L 20.75 33.75 C 20.605858 33.775795 18.693258 34.035767 16.5 34.3125 C 14.306743 34.589233 12.410308 34.82257 12.3125 34.84375 C 12.214686 34.864956 11.812457 35.185148 11.40625 35.5625 C 11.000042 35.939849 9.3781362 37.449503 7.8125 38.90625 L 4.96875 41.5625 L 5.65625 42.03125 C 6.0352722 42.286213 6.9769994 42.882029 7.75 43.375 C 8.5229995 43.867969 9.1780112 44.28125 9.1875 44.28125 C 9.1969667 44.28125 10.717627 43.553129 12.5625 42.65625 C 14.407372 41.759371 16.702424 40.650163 17.65625 40.1875 L 19.375 39.34375 L 20.1875 36.53125 L 21 33.71875 z M 19.5625 40.09375 L 14.71875 42.53125 L 9.84375 44.96875 L 9.875 45.40625 C 9.9023649 45.958641 10.702202 51.81692 11.0625 54.0625 C 11.203534 54.9415 11.355094 55.712242 11.40625 55.78125 C 11.494685 55.900537 12.27068 56.05293 19.96875 57.4375 C 21.743034 57.756673 22.030614 57.776369 22.15625 57.625 C 22.295231 57.45754 25.270964 51.899879 26.28125 49.90625 L 27.1875 48.09375 L 26.71875 47.5625 C 26.253907 47.033036 23.732614 44.380821 20.9375 41.5 L 19.5625 40.09375 z M 4.53125 41.8125 C 4.5146192 41.816015 4.4302481 42.414671 4.34375 43.15625 C 4.2572525 43.897826 4.1820222 44.591923 4.15625 44.6875 C 4.1304784 44.783075 3.9786075 45.800212 3.84375 46.9375 C 3.7088925 48.074787 3.5873515 49.093594 3.5625 49.21875 C 3.5376496 49.3439 3.5140637 49.58764 3.5 49.75 C 3.485934 49.912359 3.4201564 50.313429 3.375 50.625 C 3.289838 51.212671 3.354099 51.441083 3.9375 52.78125 L 4.3125 53.65625 C 4.6834004 54.508223 4.9515851 55.066839 5.1875 55.625 C 5.3271477 55.955404 5.4568954 56.240834 5.46875 56.25 C 5.4806046 56.259158 5.6005122 56.593418 5.75 56.96875 C 5.8994821 57.344104 6.0474196 57.644389 6.0625 57.65625 C 6.077603 57.667942 6.1630865 57.925332 6.28125 58.21875 C 6.3994135 58.51219 6.6265774 59.027361 6.78125 59.375 C 6.9359226 59.722668 7.0892477 60.032565 7.125 60.0625 C 7.1650613 60.096597 7.867184 59.380883 8.9375 58.1875 L 10.65625 56.25 L 10.53125 55.28125 C 9.7702725 49.630756 9.0325693 44.721125 8.90625 44.625 C 8.6626805 44.439637 4.5635344 41.805666 4.53125 41.8125 z M 34.4375 47.03125 L 34.0625 47.09375 C 33.850564 47.124122 32.366536 47.346021 30.75 47.59375 C 28.425254 47.950012 27.776521 48.09076 27.71875 48.21875 C 27.678581 48.307751 26.467086 50.613231 25.03125 53.34375 C 23.595414 56.074269 22.436047 58.303282 22.4375 58.3125 C 22.438956 58.321712 23.16378 59.491118 24.0625 60.90625 L 25.71875 63.46875 L 26.21875 63.03125 C 26.50585 62.784118 28.215893 61.215506 30 59.5625 L 33.25 56.5625 L 33.40625 55.375 C 33.490195 54.718067 33.62121 53.543172 33.71875 52.78125 C 33.895976 51.396832 34.032433 50.444094 34.3125 48.21875 L 34.4375 47.03125 z M 10.84375 56.34375 L 9.46875 57.875 C 8.7173793 58.716891 7.9113221 59.598059 7.6875 59.84375 C 7.4609217 60.092435 7.3122337 60.316639 7.34375 60.34375 C 7.3748997 60.370448 9.4308054 61.393408 11.90625 62.625 L 16.40625 64.875 L 21 64.25 C 23.820997 63.861107 25.539537 63.561621 25.5 63.5 C 25.464662 63.444948 25.036346 62.74108 24.53125 61.9375 C 24.026149 61.13392 23.514874 60.345872 23.40625 60.1875 C 23.297628 60.02915 23.031041 59.633634 22.8125 59.28125 C 22.593953 58.928855 22.389669 58.56388 22.34375 58.5 C 22.295888 58.433409 20.046569 57.998596 17.0625 57.46875 C 14.201152 56.960706 11.620743 56.494659 11.34375 56.4375 L 10.84375 56.34375 z "
     style="fill:#000080;stroke:none" /><path
     style="fill:#ffffff;stroke:#ffffff;stroke-width:0.24146083;stroke-linecap:round;stroke-linejoin:round;stroke-miterlimit:4;stroke-opacity:1;stroke-dasharray:none"
     d="M 0.90215855,9.8868667 0.55586039,9.0821521 0.66509225,8.2276384 C 0.72516993,7.7576557 0.77630715,7.3686884 0.77873076,7.3632665 0.78115439,7.3578445 1.0859571,7.0735655 1.45607,6.7315356 L 2.1290024,6.109663 2.545653,6.0533198 C 2.7748108,6.0223304 3.1505459,5.9717229 3.3806197,5.940859 L 3.7989359,5.8847407 4.6175521,6.2910865 5.4361683,6.6974321 5.7833597,7.5040527 6.1305511,8.3106733 6.0213181,9.1651941 C 5.96124,9.6351805 5.9101026,10.024151 5.9076788,10.029573 c -0.00243,0.0054 -0.3072262,0.289701 -0.677339,0.631732 l -0.6729327,0.621871 -0.4166506,0.05634 C 3.9115989,11.3705 3.5358652,11.42111 3.3057931,11.451973 L 2.8874801,11.508091 2.0731227,11.10388 C 1.6252259,10.881565 1.2564458,10.69785 1.2536107,10.695626 1.2507763,10.693403 1.0926225,10.32946 0.90215855,9.8868667 z M 3.0977723,11.466601 c 0.1086409,-0.01373 0.1984812,-0.02621 0.1996464,-0.02771 0.00117,-0.0015 0.1882852,-0.02653 0.4158227,-0.0556 0.2275374,-0.02908 0.4146773,-0.05413 0.4158667,-0.05567 0.00119,-0.0015 0.096136,-0.01481 0.2109922,-0.0295 0.1632224,-0.02087 0.2078579,-0.02898 0.2043821,-0.03714 -0.00244,-0.0057 -0.00892,-0.01173 -0.014373,-0.01337 -0.00612,-0.0019 -0.00693,-0.0041 -0.0021,-0.0059 0.00528,-0.002 0.00299,-0.0049 -0.00704,-0.0089 -0.012015,-0.0048 -0.012506,-0.006 -0.0026,-0.0059 0.00974,5.1e-5 0.00859,-0.0018 -0.00558,-0.0087 -0.013928,-0.0068 -0.015184,-0.0087 -0.00571,-0.0085 0.00946,1.92e-4 0.00821,-0.0016 -0.00571,-0.0085 -0.013971,-0.0068 -0.015202,-0.0087 -0.00569,-0.0086 0.0099,1.75e-4 0.00966,-9.56e-4 -0.00138,-0.0061 -0.00822,-0.004 -0.010665,-0.0075 -0.00627,-0.0091 0.00457,-0.0018 0.00177,-0.0049 -0.00761,-0.0087 -0.012015,-0.0048 -0.012506,-0.006 -0.0026,-0.0059 0.00974,5.1e-5 0.00859,-0.0018 -0.00558,-0.0087 -0.013928,-0.0068 -0.015182,-0.0087 -0.00571,-0.0085 0.00946,1.92e-4 0.00821,-0.0016 -0.00571,-0.0085 -0.013927,-0.0068 -0.015182,-0.0087 -0.00571,-0.0085 0.00946,1.91e-4 0.00821,-0.0016 -0.00571,-0.0085 -0.013971,-0.0068 -0.015202,-0.0087 -0.00569,-0.0086 0.0099,1.75e-4 0.00966,-9.56e-4 -0.00138,-0.0061 -0.00822,-0.004 -0.010665,-0.0075 -0.00627,-0.0091 0.00457,-0.0018 0.00177,-0.0049 -0.00761,-0.0087 -0.012015,-0.0048 -0.012506,-0.006 -0.0026,-0.0059 0.00974,5.4e-5 0.00861,-0.0018 -0.00558,-0.0087 -0.013927,-0.0068 -0.015184,-0.0087 -0.00571,-0.0085 0.00946,1.91e-4 0.00821,-0.0016 -0.00571,-0.0085 -0.013971,-0.0068 -0.015202,-0.0087 -0.00569,-0.0086 0.0099,1.75e-4 0.00966,-9.56e-4 -0.00138,-0.0061 -0.00822,-0.004 -0.010665,-0.0075 -0.00627,-0.0091 0.00457,-0.0018 0.00177,-0.0049 -0.00761,-0.0087 -0.012015,-0.0048 -0.012506,-0.006 -0.0026,-0.0059 0.00974,5.2e-5 0.00859,-0.0018 -0.00558,-0.0087 -0.013928,-0.0068 -0.015184,-0.0087 -0.00571,-0.0085 0.00946,1.92e-4 0.00821,-0.0016 -0.00571,-0.0085 -0.013971,-0.0068 -0.015202,-0.0087 -0.00569,-0.0086 0.0099,1.75e-4 0.00966,-9.56e-4 -0.00138,-0.0061 -0.00822,-0.004 -0.010665,-0.0075 -0.00627,-0.0091 0.00457,-0.0018 0.00177,-0.0049 -0.00761,-0.0087 -0.012015,-0.0048 -0.012506,-0.006 -0.0026,-0.0059 0.00974,5.1e-5 0.00859,-0.0018 -0.00558,-0.0087 -0.013928,-0.0068 -0.015184,-0.0087 -0.00571,-0.0085 0.00946,1.91e-4 0.00821,-0.0016 -0.00571,-0.0085 -0.013971,-0.0068 -0.015202,-0.0087 -0.00569,-0.0086 0.0099,1.75e-4 0.00966,-9.56e-4 -0.00138,-0.0061 -0.00822,-0.004 -0.010665,-0.0075 -0.00627,-0.0091 0.00457,-0.0018 0.00177,-0.0049 -0.00761,-0.0087 -0.012015,-0.0048 -0.012506,-0.006 -0.0026,-0.0059 0.00974,5.3e-5 0.00861,-0.0018 -0.00558,-0.0087 -0.013928,-0.0068 -0.015182,-0.0087 -0.00571,-0.0085 0.00946,1.9e-4 0.00821,-0.0016 -0.00571,-0.0085 -0.013971,-0.0068 -0.015202,-0.0087 -0.00569,-0.0086 0.0099,1.73e-4 0.00966,-9.57e-4 -0.00138,-0.0061 -0.00822,-0.004 -0.010665,-0.0075 -0.00627,-0.0091 0.00457,-0.0018 0.00177,-0.0049 -0.00761,-0.0087 -0.012015,-0.0048 -0.012506,-0.006 -0.0026,-0.0059 0.00974,5.3e-5 0.00859,-0.0018 -0.00558,-0.0087 -0.013928,-0.0068 -0.015184,-0.0087 -0.00571,-0.0085 0.00946,1.92e-4 0.00821,-0.0016 -0.00571,-0.0085 -0.013928,-0.0068 -0.015183,-0.0087 -0.00571,-0.0085 0.00946,1.92e-4 0.00821,-0.0016 -0.00571,-0.0085 -0.013971,-0.0068 -0.015202,-0.0087 -0.00569,-0.0086 0.0099,1.73e-4 0.00966,-9.58e-4 -0.00138,-0.0061 -0.00822,-0.004 -0.010665,-0.0075 -0.00627,-0.0091 0.00457,-0.0018 0.00177,-0.0049 -0.00761,-0.0087 -0.012015,-0.0048 -0.012506,-0.006 -0.0026,-0.0059 0.00974,5.3e-5 0.00861,-0.0018 -0.00558,-0.0087 -0.013928,-0.0068 -0.015184,-0.0087 -0.00571,-0.0085 0.00946,1.9e-4 0.00821,-0.0016 -0.00571,-0.0085 -0.013971,-0.0068 -0.015202,-0.0087 -0.00569,-0.0086 0.0099,1.73e-4 0.00966,-9.58e-4 -0.00138,-0.0061 -0.00822,-0.004 -0.010665,-0.0075 -0.00627,-0.0091 0.00457,-0.0018 0.00177,-0.0049 -0.00761,-0.0087 -0.012015,-0.0048 -0.012506,-0.006 -0.0026,-0.0059 0.00974,5e-5 0.00861,-0.0018 -0.00558,-0.0087 -0.013928,-0.0068 -0.015182,-0.0087 -0.00571,-0.0085 0.00946,1.89e-4 0.00821,-0.0016 -0.00571,-0.0085 -0.013971,-0.0068 -0.015202,-0.0087 -0.00569,-0.0086 0.0099,1.73e-4 0.00966,-9.58e-4 -0.00138,-0.0061 -0.00822,-0.004 -0.010665,-0.0075 -0.00627,-0.0091 0.00457,-0.0018 0.00177,-0.0049 -0.00761,-0.0087 -0.012015,-0.0048 -0.012506,-0.006 -0.0026,-0.0059 0.00974,5.3e-5 0.00861,-0.0018 -0.00558,-0.0087 -0.013928,-0.0068 -0.015184,-0.0087 -0.00571,-0.0085 0.00946,1.92e-4 0.00821,-0.0016 -0.00571,-0.0085 -0.013971,-0.0068 -0.015202,-0.0087 -0.00569,-0.0086 0.0099,1.75e-4 0.00966,-9.56e-4 -0.00138,-0.0061 -0.00822,-0.004 -0.010665,-0.0075 -0.00627,-0.0091 0.00457,-0.0018 0.00177,-0.0049 -0.00761,-0.0087 -0.012015,-0.0048 -0.012506,-0.006 -0.0026,-0.0059 0.00974,5.4e-5 0.00859,-0.0017 -0.00558,-0.0087 -0.013927,-0.0068 -0.015182,-0.0087 -0.00571,-0.0085 0.00946,1.94e-4 0.00821,-0.0017 -0.00571,-0.0085 -0.013971,-0.0069 -0.015202,-0.0087 -0.00569,-0.0085 0.0099,1.74e-4 0.00966,-9.57e-4 -0.00138,-0.0062 -0.00822,-0.0039 -0.010665,-0.0075 -0.00627,-0.0091 0.00457,-0.0017 0.00177,-0.0049 -0.00761,-0.0087 -0.012015,-0.0048 -0.012506,-0.006 -0.0026,-0.0059 0.00974,5e-5 0.00859,-0.0017 -0.00558,-0.0087 -0.013927,-0.0068 -0.015184,-0.0087 -0.00571,-0.0085 0.00946,1.92e-4 0.00821,-0.0017 -0.00571,-0.0085 -0.013928,-0.0068 -0.015184,-0.0087 -0.00571,-0.0085 0.00946,1.91e-4 0.00821,-0.0017 -0.00571,-0.0085 -0.013971,-0.0069 -0.015202,-0.0087 -0.00569,-0.0085 0.0099,1.74e-4 0.00966,-9.56e-4 -0.00138,-0.0062 -0.00822,-0.0039 -0.010665,-0.0075 -0.00627,-0.0091 0.00457,-0.0017 0.00177,-0.0049 -0.00761,-0.0087 -0.012015,-0.0048 -0.012506,-0.006 -0.0026,-0.0059 0.00974,5e-5 0.00859,-0.0017 -0.00558,-0.0087 -0.013928,-0.0068 -0.015182,-0.0087 -0.00571,-0.0085 0.00946,1.92e-4 0.00821,-0.0017 -0.00571,-0.0085 -0.013969,-0.0069 -0.015202,-0.0087 -0.00569,-0.0085 0.0099,1.74e-4 0.00966,-9.57e-4 -0.00138,-0.0062 -0.00822,-0.0039 -0.010665,-0.0075 -0.00627,-0.0091 0.00457,-0.0017 0.00177,-0.0049 -0.00761,-0.0087 -0.011456,-0.0046 -0.012138,-0.0058 -0.003,-0.0054 0.00652,3.06e-4 0.00985,-0.0011 0.00736,-0.003 -0.00576,-0.0046 -0.1657901,-0.03665 -0.1787144,-0.03578 -0.00536,3.6e-4 -0.042692,-0.0064 -0.082949,-0.01492 -0.040258,-0.0086 -0.07751,-0.01523 -0.082783,-0.0148 -0.00528,4.3e-4 -0.039332,-0.0056 -0.075683,-0.01341 -0.036352,-0.0078 -0.070417,-0.01385 -0.075697,-0.01342 -0.00528,4.25e-4 -0.042541,-0.0062 -0.082797,-0.01481 -0.040256,-0.0086 -0.07751,-0.01523 -0.082783,-0.0148 -0.00528,4.3e-4 -0.039332,-0.0056 -0.075684,-0.01341 -0.036352,-0.0078 -0.07041,-0.01384 -0.075683,-0.01341 -0.00528,4.33e-4 -0.039332,-0.0056 -0.075684,-0.01341 -0.036352,-0.0078 -0.070417,-0.01384 -0.075697,-0.01342 -0.00528,4.27e-4 -0.042541,-0.0062 -0.082797,-0.01481 -0.040256,-0.0086 -0.07751,-0.01523 -0.082783,-0.0148 -0.00528,4.32e-4 -0.039332,-0.0056 -0.075684,-0.01341 -0.036352,-0.0078 -0.07041,-0.01384 -0.075683,-0.01341 -0.00528,4.32e-4 -0.039332,-0.0056 -0.075684,-0.01341 -0.036352,-0.0078 -0.070416,-0.01389 -0.075697,-0.01346 -0.00528,4.27e-4 -0.042541,-0.0062 -0.082797,-0.01481 -0.040258,-0.0086 -0.07751,-0.01523 -0.082783,-0.0148 -0.00528,4.32e-4 -0.039332,-0.0056 -0.075683,-0.01341 -0.036352,-0.0078 -0.070417,-0.01384 -0.075697,-0.01342 -0.00528,4.27e-4 -0.042541,-0.0062 -0.082797,-0.01481 C 2.091422,10.001371 2.056217,9.99494 2.053443,9.995612 2.044833,9.997702 1.918421,9.971602 1.9179123,9.967632 c -2.662e-4,-0.00207 -0.00571,0.00498 -0.012124,0.015613 -0.0064,0.010651 -0.013624,0.017825 -0.016057,0.01594 -0.00241,-0.00187 -0.016127,0.013338 -0.03046,0.033827 -0.014342,0.02048 -0.027975,0.03576 -0.030318,0.03394 -0.00233,-0.0018 -0.015985,0.01345 -0.030318,0.03394 -0.014342,0.02048 -0.027977,0.03576 -0.030318,0.03394 -0.00233,-0.0018 -0.015086,0.0123 -0.02832,0.03138 -0.013229,0.01909 -0.025983,0.0332 -0.028336,0.03137 -0.00236,-0.0018 -0.016003,0.01343 -0.030335,0.03392 -0.014342,0.02048 -0.027976,0.03576 -0.030318,0.03394 -0.00233,-0.0018 -0.015086,0.0123 -0.028318,0.03138 -0.013229,0.01909 -0.025983,0.0332 -0.028335,0.03137 -0.00236,-0.0018 -0.016003,0.01343 -0.030335,0.03392 -0.014342,0.02048 -0.027975,0.03576 -0.030318,0.03394 -0.00233,-0.0018 -0.015986,0.01345 -0.030318,0.03394 -0.014342,0.02048 -0.027975,0.03576 -0.030318,0.03394 -0.00233,-0.0018 -0.015086,0.0123 -0.028319,0.03139 -0.013229,0.01909 -0.025983,0.0332 -0.028336,0.03137 -0.00236,-0.0018 -0.016003,0.01343 -0.030335,0.03392 -0.014342,0.02047 -0.027975,0.03576 -0.030318,0.03393 -0.00233,-0.0018 -0.015986,0.0135 -0.030318,0.03393 -0.014734,0.02103 -0.028153,0.03562 -0.030898,0.03351 -0.00266,-0.002 -0.00798,0.0025 -0.01181,0.01 l -0.00696,0.01375 0.8124685,0.403211 0.8124698,0.403211 0.1975277,-0.02497 z M 1.2669124,10.662944 c 6.937e-4,-5.95e-4 0.1430741,-0.15885 0.3164064,-0.351683 L 1.8984677,9.9606559 1.8885734,9.8864826 C 1.8831315,9.8456872 1.8229039,9.4215604 1.7547341,8.9439787 1.6865645,8.4663967 1.6257144,8.0392632 1.6195117,7.9947931 L 1.6082344,7.9139381 1.2051575,7.6507902 C 0.98346606,7.5060578 0.80155018,7.3874323 0.80090161,7.3871759 c -6.4774e-4,-2.561e-4 -0.004286,0.00426 -0.008087,0.010024 -0.003801,0.00577 -0.0046,0.010719 -0.001781,0.011019 0.005793,6.183e-4 -0.004158,0.042774 -0.0112649,0.047684 -0.002533,0.00175 -0.001365,0.00353 0.002599,0.00395 0.007088,7.413e-4 0.001429,0.026872 -0.007242,0.033448 -0.002421,0.00183 -0.001161,0.00368 0.002803,0.00412 0.007088,7.414e-4 0.001429,0.026872 -0.007242,0.033448 -0.002421,0.00183 -0.001312,0.00367 0.002482,0.00406 0.007048,7.386e-4 -0.001163,0.042106 -0.009503,0.047868 -0.002533,0.00175 -0.001365,0.00353 0.002599,0.00395 0.007088,7.413e-4 0.001429,0.026872 -0.007242,0.033448 -0.002421,0.00183 -0.001312,0.00367 0.002482,0.00406 0.007048,7.385e-4 -0.001163,0.042106 -0.009503,0.047868 -0.002533,0.00175 -0.001365,0.00353 0.002599,0.00396 0.007088,7.414e-4 0.001429,0.026872 -0.007242,0.033448 -0.002421,0.00183 -0.001161,0.00368 0.002803,0.00412 0.007088,7.413e-4 0.001429,0.026872 -0.007242,0.033448 -0.002421,0.00183 -0.001312,0.00367 0.002482,0.00406 0.007048,7.386e-4 -0.001163,0.042106 -0.009503,0.047868 -0.002533,0.00175 -0.001365,0.00353 0.002599,0.00395 0.007088,7.412e-4 0.001429,0.026872 -0.007242,0.033448 -0.002421,0.00183 -0.001161,0.00368 0.002803,0.00412 0.007088,7.412e-4 0.001429,0.026872 -0.007242,0.033448 -0.002421,0.00183 -0.001312,0.00367 0.002482,0.00406 0.007048,7.385e-4 -0.001163,0.042106 -0.009503,0.047868 -0.002533,0.00175 -0.001365,0.00353 0.002599,0.00396 0.007088,7.414e-4 0.001429,0.026872 -0.007242,0.033448 -0.002421,0.00183 -0.001312,0.00367 0.002482,0.00406 0.007048,7.385e-4 -0.001163,0.042106 -0.009503,0.047868 -0.002533,0.00175 -0.001365,0.00353 0.002599,0.00395 0.007088,7.413e-4 0.001429,0.026872 -0.007242,0.033448 -0.002421,0.00183 -0.001161,0.00368 0.002803,0.00412 0.007088,7.412e-4 0.001429,0.026872 -0.007242,0.033448 -0.002421,0.00183 -0.001312,0.00367 0.002482,0.00406 0.007048,7.386e-4 -0.001163,0.042106 -0.009503,0.047868 -0.002533,0.00175 -0.001365,0.00353 0.002599,0.00396 0.007088,7.412e-4 0.001429,0.026872 -0.007242,0.033448 -0.002421,0.00183 -0.001161,0.00368 0.002803,0.00412 0.007088,7.412e-4 0.001429,0.026872 -0.007242,0.033448 -0.002421,0.00183 -0.001312,0.00367 0.002482,0.00406 0.007048,7.385e-4 -0.001163,0.042106 -0.009503,0.047868 -0.002533,0.00175 -0.001365,0.00353 0.002599,0.00395 0.007088,7.413e-4 0.001429,0.026872 -0.007242,0.033448 -0.002421,0.00183 -0.001312,0.00367 0.002482,0.00406 0.007048,7.385e-4 -0.001163,0.042106 -0.009503,0.047868 -0.002533,0.00175 -0.001365,0.00353 0.002599,0.00396 0.007088,7.412e-4 0.001429,0.026872 -0.007242,0.033448 -0.002421,0.00183 -0.001161,0.00368 0.002803,0.00412 0.007088,7.412e-4 0.001429,0.026872 -0.007242,0.033448 -0.002421,0.00183 -0.001312,0.00367 0.002482,0.00406 0.007048,7.386e-4 -0.001163,0.042106 -0.009503,0.047868 -0.002533,0.00175 -0.001365,0.00353 0.002599,0.00395 0.007088,7.412e-4 0.001429,0.026872 -0.007242,0.033448 -0.002421,0.00183 -0.001161,0.00368 0.002803,0.00412 0.007088,7.413e-4 0.001429,0.026872 -0.007242,0.033448 -0.002421,0.00183 -0.001312,0.00367 0.002482,0.00406 0.007048,7.385e-4 -0.001163,0.042106 -0.009503,0.047868 -0.002533,0.00175 -0.001363,0.00353 0.002599,0.00395 0.007088,7.412e-4 0.001429,0.026872 -0.007242,0.033448 -0.002421,0.00183 -0.001312,0.00367 0.002482,0.00406 0.007048,7.387e-4 -0.001163,0.042106 -0.009503,0.047868 -0.002533,0.00175 -0.001365,0.00353 0.002599,0.00396 0.007088,7.412e-4 0.001429,0.026872 -0.007242,0.033448 -0.002421,0.00183 -0.001161,0.00368 0.002803,0.00412 0.007088,7.413e-4 0.001429,0.026872 -0.007242,0.033448 -0.002421,0.00183 -0.001312,0.00367 0.002482,0.00406 0.007048,7.385e-4 -0.001163,0.042106 -0.009503,0.047868 -0.002533,0.00175 -0.001365,0.00353 0.002599,0.00395 0.007088,7.413e-4 0.001429,0.026872 -0.007242,0.033448 -0.002421,0.00183 -0.001161,0.00368 0.002803,0.00412 0.007088,7.413e-4 0.001429,0.026872 -0.007242,0.033448 -0.002421,0.00183 -0.001312,0.00367 0.002482,0.00406 0.007048,7.387e-4 -0.001163,0.042106 -0.009503,0.047868 -0.002533,0.00175 -0.001365,0.00353 0.002599,0.00395 0.007088,7.412e-4 0.001429,0.026872 -0.007242,0.033448 -0.002421,0.00183 -0.001312,0.00367 0.002482,0.00406 0.007048,7.385e-4 -0.001163,0.042106 -0.009503,0.047868 -0.002533,0.00175 -0.001363,0.00353 0.002599,0.00395 0.003971,4.183e-4 0.005047,0.00671 0.002391,0.013975 -0.002658,0.00727 0.001465,0.025905 0.009161,0.041412 0.007697,0.015506 0.0112663,0.029219 0.00793,0.030474 -0.003329,0.00125 -0.003622,0.00315 -6.3786e-4,0.00421 0.009412,0.00337 0.0338654,0.054542 0.0272504,0.057027 -0.003475,0.00131 -0.003876,0.00325 -8.9151e-4,0.00431 0.00941,0.00337 0.0338654,0.054542 0.0272504,0.057027 -0.003475,0.00131 -0.003876,0.00325 -8.9151e-4,0.00431 0.00941,0.00337 0.0338654,0.054542 0.0272504,0.057027 -0.003475,0.00131 -0.003876,0.00325 -8.934e-4,0.00431 0.009412,0.00337 0.0338654,0.054542 0.0272504,0.057025 -0.003475,0.00131 -0.003876,0.00325 -8.9341e-4,0.00431 0.009412,0.00337 0.0338654,0.054542 0.0272504,0.057025 -0.003475,0.00131 -0.003876,0.00325 -8.934e-4,0.00431 0.009412,0.00337 0.0338654,0.054542 0.0272504,0.057025 -0.003475,0.00131 -0.003876,0.00325 -8.9341e-4,0.00431 0.009412,0.00337 0.0338654,0.054542 0.0272504,0.057025 -0.003475,0.00131 -0.003876,0.00325 -8.934e-4,0.00431 0.009412,0.00337 0.0338654,0.054542 0.0272504,0.057027 -0.003475,0.00131 -0.003876,0.00325 -8.934e-4,0.00431 0.009412,0.00337 0.0338654,0.054542 0.0272506,0.057027 -0.003475,0.00131 -0.003876,0.00325 -8.9341e-4,0.00431 0.009412,0.00337 0.0338654,0.054542 0.0272504,0.057025 -0.003475,0.00131 -0.003876,0.00325 -8.934e-4,0.00431 0.009412,0.00337 0.0338654,0.054542 0.0272504,0.057025 -0.003475,0.00131 -0.003876,0.00325 -8.934e-4,0.00431 0.009412,0.00337 0.0338654,0.054542 0.0272504,0.057025 -0.003475,0.00131 -0.003802,0.0033 -7.2991e-4,0.00445 0.009457,0.00349 0.0398906,0.067517 0.0332817,0.069999 -0.003416,0.00128 -0.003772,0.0032 -7.886e-4,0.00427 0.009412,0.00337 0.0338654,0.054542 0.0272504,0.057027 -0.003475,0.0013 -0.003876,0.0032 -8.9152e-4,0.0043 0.009412,0.0034 0.0338654,0.05454 0.0272504,0.05703 -0.003475,0.0013 -0.003876,0.0032 -8.9339e-4,0.0043 0.009412,0.0034 0.0338654,0.05454 0.0272505,0.05703 -0.00347,0.0013 -0.00388,0.0032 -8.934e-4,0.0043 0.00941,0.0034 0.033865,0.05454 0.02725,0.05703 -0.00347,0.0013 -0.00388,0.0032 -8.934e-4,0.0043 0.00941,0.0034 0.033865,0.05454 0.02725,0.05703 -0.00347,0.0013 -0.00388,0.0032 -8.934e-4,0.0043 0.00941,0.0034 0.033865,0.05454 0.02725,0.05703 -0.00347,0.0013 -0.00388,0.0032 -8.934e-4,0.0043 0.00941,0.0034 0.033865,0.05454 0.027251,0.05703 -0.00348,0.0013 -0.00388,0.0032 -8.934e-4,0.0043 0.00941,0.0034 0.033865,0.05454 0.02725,0.05703 -0.00347,0.0013 -0.00388,0.0032 -8.934e-4,0.0043 0.00941,0.0034 0.033865,0.05454 0.027251,0.05703 -0.00348,0.0013 -0.00388,0.0032 -8.935e-4,0.0043 0.00941,0.0034 0.033865,0.05454 0.027251,0.05703 -0.00348,0.0013 -0.00388,0.0033 -8.934e-4,0.0044 0.010185,0.0037 0.033587,0.05465 0.026324,0.05738 -0.00398,0.0015 -0.00411,0.003 -2.863e-4,0.0034 0.00383,3.89e-4 0.010242,0.0083 0.014258,0.01766 0.00687,0.01593 0.013128,0.0246 0.015977,0.02216 z M 2.927155,10.131046 c 0.5427437,0.09671 0.9936061,0.177013 1.0019162,0.178456 0.014994,0.0026 0.018788,-0.0044 0.4911542,-0.9020726 C 4.6820498,8.9098457 4.8959736,8.500421 4.8956114,8.4975968 4.8945329,8.4891871 3.4806956,7.0184719 3.4739655,7.018759 3.4705642,7.0189041 3.0556069,7.2203873 2.5518384,7.4664995 1.9668406,7.7522955 1.635581,7.9174889 1.635025,7.9236981 c -4.796e-4,0.00535 0.063562,0.4632395 0.142314,1.0175391 0.097206,0.6841942 0.1463673,1.0088063 0.1530966,1.0108972 0.00546,0.00169 0.4539753,0.082204 0.9967194,0.1789116 z m 2.2955191,0.509716 c 0.573344,-0.530298 0.6667178,-0.618681 0.672058,-0.636134 0.00341,-0.011142 0.00468,-0.021445 0.00282,-0.022883 -0.00185,-0.00143 -6.534e-4,-0.012492 0.00269,-0.024559 0.00334,-0.012069 0.00544,-0.027302 0.00468,-0.033849 -7.667e-4,-0.00655 0.00116,-0.015202 0.00427,-0.019234 0.00311,-0.00404 0.0034,-0.00908 6.296e-4,-0.011224 -0.00277,-0.00214 -0.00202,-0.010774 0.00166,-0.019205 0.00367,-0.00843 0.00491,-0.01669 0.00274,-0.018369 -0.00217,-0.00168 -0.00122,-0.012929 0.00211,-0.025 0.00334,-0.01207 0.00544,-0.027303 0.00468,-0.033849 -7.643e-4,-0.00655 0.00116,-0.015202 0.00427,-0.019234 0.00311,-0.00404 0.00364,-0.00889 0.00115,-0.010815 -0.00248,-0.00191 -0.00177,-0.013365 0.00155,-0.025429 0.00334,-0.01207 0.00544,-0.027302 0.00468,-0.033849 -7.643e-4,-0.00655 0.00116,-0.015202 0.00427,-0.019234 0.00311,-0.00404 0.0034,-0.00908 6.297e-4,-0.011224 -0.00277,-0.00214 -0.00202,-0.010774 0.00166,-0.019205 0.00367,-0.00843 0.00491,-0.01669 0.00274,-0.018369 -0.00217,-0.00168 -0.00122,-0.012929 0.00211,-0.025 0.00334,-0.01207 0.00544,-0.027303 0.00468,-0.033849 -7.667e-4,-0.00655 0.00116,-0.015202 0.00427,-0.019234 0.00311,-0.00404 0.0034,-0.00908 6.296e-4,-0.011224 -0.00277,-0.00214 -0.00202,-0.010774 0.00166,-0.019205 0.00367,-0.00843 0.00491,-0.016689 0.00274,-0.018369 -0.00217,-0.00168 -0.00122,-0.012929 0.00211,-0.025 0.00334,-0.012069 0.00544,-0.027303 0.00468,-0.033849 -7.642e-4,-0.00655 0.00116,-0.015202 0.00427,-0.019234 0.00311,-0.00404 0.00364,-0.00889 0.00115,-0.010815 -0.00248,-0.00191 -0.00177,-0.013365 0.00155,-0.025429 0.00334,-0.01207 0.00544,-0.027302 0.00468,-0.033849 -7.667e-4,-0.00655 0.00116,-0.015202 0.00427,-0.019234 0.00311,-0.00404 0.0034,-0.00908 6.296e-4,-0.011224 -0.00277,-0.00214 -0.00202,-0.010774 0.00166,-0.019205 0.00367,-0.00843 0.00491,-0.01669 0.00274,-0.018369 -0.00217,-0.00168 -0.00122,-0.012929 0.00211,-0.025 0.00334,-0.012069 0.00544,-0.027303 0.00468,-0.033849 -7.668e-4,-0.00655 0.00116,-0.015202 0.00427,-0.019234 0.00311,-0.00404 0.0034,-0.00908 6.297e-4,-0.011224 -0.00277,-0.00214 -0.00202,-0.010774 0.00166,-0.019205 0.00367,-0.00843 0.00491,-0.016689 0.00274,-0.018369 -0.00217,-0.00168 -0.00122,-0.012929 0.00211,-0.025 0.00334,-0.01207 0.00544,-0.027302 0.00468,-0.033849 -7.643e-4,-0.00655 0.00116,-0.015202 0.00427,-0.019234 0.00311,-0.00404 0.00364,-0.00889 0.00115,-0.010815 -0.00248,-0.00191 -0.00177,-0.013365 0.00155,-0.025429 0.00334,-0.01207 0.00544,-0.027302 0.00468,-0.033849 -7.667e-4,-0.00655 0.00116,-0.015202 0.00427,-0.019234 0.00311,-0.00404 0.0034,-0.00908 6.297e-4,-0.011224 C 6.02245,8.988353 6.0232,8.979719 6.02688,8.971288 6.03055,8.962858 6.03179,8.954598 6.02962,8.952918 6.02745,8.951238 6.0284,8.939989 6.03173,8.92792 6.03507,8.91585 6.03717,8.900617 6.03641,8.894071 6.0356457,8.887521 6.03757,8.878869 6.04068,8.874837 c 0.00311,-0.00404 0.0034,-0.00908 6.297e-4,-0.011224 -0.00277,-0.00214 -0.00202,-0.010774 0.00166,-0.019205 0.00367,-0.00843 0.00491,-0.01669 0.00274,-0.01837 -0.00217,-0.00168 -0.00122,-0.012929 0.00211,-0.025 0.00334,-0.01207 0.00544,-0.027302 0.00468,-0.033849 -7.643e-4,-0.00655 0.00116,-0.015202 0.00427,-0.019234 0.00311,-0.00404 0.00364,-0.00889 0.00115,-0.010815 -0.00248,-0.00191 -0.00177,-0.013365 0.00155,-0.025429 0.00334,-0.012069 0.00544,-0.027303 0.00468,-0.033849 -7.667e-4,-0.00655 0.00116,-0.015202 0.00427,-0.019233 0.00311,-0.00404 0.0034,-0.00908 6.296e-4,-0.011224 -0.00277,-0.00214 -0.00202,-0.010774 0.00166,-0.019205 0.00367,-0.00843 0.00491,-0.01669 0.00274,-0.01837 -0.00217,-0.00168 -0.00122,-0.012929 0.00211,-0.025 0.00334,-0.01207 0.00544,-0.027303 0.00468,-0.033849 -7.642e-4,-0.00655 0.00116,-0.015202 0.00427,-0.019234 0.00311,-0.00404 0.0034,-0.00908 6.297e-4,-0.011224 C 6.082369,8.518383 6.083119,8.509749 6.086799,8.501318 6.090469,8.492888 6.091709,8.484629 6.089539,8.482949 6.087369,8.481269 6.088319,8.47002 6.091649,8.457951 6.094989,8.445881 6.097089,8.430647 6.096329,8.424102 6.0955647,8.417552 6.097489,8.4089 6.100599,8.404868 6.103709,8.400828 6.104239,8.395978 6.101749,8.394053 6.099269,8.392143 6.099939,8.380661 6.103219,8.368557 6.106509,8.356447 6.108869,8.339852 6.108459,8.331672 6.1077624,8.31778 6.105159,8.317103 6.069078,8.321389 c -0.02125,0.00252 -0.039787,0.00607 -0.041193,0.0079 -0.0014,0.00181 -0.047295,0.00871 -0.1019747,0.015315 -0.054681,0.0066 -0.1006068,0.013542 -0.1020565,0.01542 -0.00145,0.00188 -0.045315,0.00854 -0.09748,0.014801 -0.052164,0.00626 -0.096026,0.012915 -0.097471,0.01479 -0.00145,0.00187 -0.047367,0.00881 -0.1020483,0.015409 -0.054681,0.0066 -0.1005972,0.013529 -0.1020374,0.015397 -0.00145,0.00187 -0.047358,0.0088 -0.1020374,0.015397 -0.054681,0.0066 -0.1006054,0.013542 -0.1020565,0.01542 -0.00145,0.00188 -0.045315,0.00854 -0.09748,0.014801 -0.052164,0.00626 -0.096138,0.013065 -0.097721,0.015112 -0.00158,0.00205 -0.025319,0.00615 -0.052747,0.00911 l -0.049871,0.00539 -0.4806766,0.9132099 c -0.264372,0.5022653 -0.4804138,0.9146761 -0.480093,0.9164681 0.0012,0.0067 0.58038,0.918618 0.587374,0.924815 0.00596,0.0053 0.1301233,-0.107139 0.6731526,-0.609398 z M 1.2366454,7.6462875 C 1.444361,7.7823801 1.6176096,7.893304 1.6216406,7.8927872 1.6256684,7.8922751 2.0426253,7.6897011 2.5482039,7.4426336 L 3.4674376,6.9934199 3.6233211,6.4567561 c 0.085736,-0.295165 0.1556163,-0.538748 0.1552896,-0.5412954 -5.135e-4,-0.004 -0.5806488,0.071961 -1.4016526,0.183539 L 2.1366668,6.1316563 1.4782281,6.740303 C 1.116087,7.0750587 0.81673663,7.3528706 0.81300537,7.3576626 c -0.005722,0.00735 -0.002655,0.011251 0.0195947,0.024949 0.0145177,0.00892 0.19632943,0.1275826 0.40404503,0.2636758 z M 0.81979766,7.3346172 c 0.001304,-0.00462 -0.002098,-0.00263 -0.007543,0.00442 -0.005451,0.00705 -0.006518,0.010842 -0.002368,0.00841 0.004149,-0.00243 0.008608,-0.0082 0.009912,-0.012833 z m 0.0289194,-0.026823 c 0.001304,-0.00462 -0.002097,-0.00263 -0.007543,0.00442 -0.005451,0.00705 -0.006518,0.010842 -0.002368,0.00841 0.004149,-0.00243 0.008608,-0.0082 0.009912,-0.012833 z m 0.0289194,-0.026822 c 0.001304,-0.00462 -0.002098,-0.00263 -0.007543,0.00442 -0.005451,0.00705 -0.006518,0.010842 -0.002368,0.00841 0.004149,-0.00243 0.008608,-0.0082 0.009912,-0.012833 z m 0.0289197,-0.026823 c 0.001304,-0.00462 -0.002098,-0.00263 -0.007543,0.00442 -0.005451,0.00705 -0.006518,0.010842 -0.002368,0.00841 0.004149,-0.00243 0.008608,-0.0082 0.009912,-0.012833 z m 0.0289194,-0.026823 c 0.001304,-0.00462 -0.002098,-0.00263 -0.007543,0.00442 -0.005451,0.00705 -0.006518,0.010842 -0.002368,0.00841 0.004149,-0.00243 0.008608,-0.0082 0.009912,-0.012833 z m 0.0289197,-0.026823 c 0.001304,-0.00462 -0.002098,-0.00263 -0.007543,0.00442 -0.005451,0.00705 -0.006518,0.010842 -0.002368,0.00841 0.004149,-0.00243 0.008608,-0.0082 0.009912,-0.012833 z m 0.0289194,-0.026822 c 0.001304,-0.00462 -0.002098,-0.00263 -0.007543,0.00442 -0.005451,0.00705 -0.006518,0.010842 -0.002368,0.00841 0.004149,-0.00243 0.008608,-0.0082 0.009912,-0.012833 z m 0.0289197,-0.026823 c 0.0013,-0.00462 -0.0021,-0.00263 -0.00754,0.00442 -0.00545,0.00705 -0.00652,0.010842 -0.00237,0.00841 0.00415,-0.00243 0.00861,-0.0082 0.00991,-0.012833 z m 0.028919,-0.026822 c 0.0013,-0.00462 -0.0021,-0.00263 -0.00754,0.00442 -0.00545,0.00705 -0.00652,0.010842 -0.00237,0.00841 0.00415,-0.00243 0.00861,-0.0082 0.00991,-0.012833 z m 0.02892,-0.026823 c 0.0013,-0.00462 -0.0021,-0.00263 -0.00754,0.00442 -0.00545,0.00705 -0.00652,0.010842 -0.00237,0.00841 0.00415,-0.00243 0.00861,-0.0082 0.00991,-0.012833 z m 0.028919,-0.026822 c 0.0013,-0.00462 -0.0021,-0.00263 -0.00754,0.00442 -0.00545,0.00705 -0.00652,0.010842 -0.00237,0.00841 0.00415,-0.00243 0.00861,-0.0082 0.00991,-0.012833 z m 0.02892,-0.026823 c 0.0013,-0.00462 -0.0021,-0.00263 -0.00754,0.00442 -0.00545,0.00705 -0.00652,0.010842 -0.00237,0.00841 0.00415,-0.00243 0.00861,-0.0082 0.00991,-0.012833 z m 0.02892,-0.026823 c 0.0013,-0.00462 -0.0021,-0.00263 -0.00754,0.00442 -0.00545,0.00705 -0.00652,0.010842 -0.00237,0.00841 0.00415,-0.00243 0.00861,-0.0082 0.00991,-0.012833 z m 0.028919,-0.026823 c 0.0013,-0.00462 -0.0021,-0.00263 -0.00754,0.00442 -0.00545,0.00705 -0.00652,0.010842 -0.00237,0.00841 0.00415,-0.00243 0.00861,-0.0082 0.00991,-0.012833 z m 0.02892,-0.026823 c 0.0013,-0.00462 -0.0021,-0.00263 -0.00754,0.00442 -0.00545,0.00705 -0.00652,0.010842 -0.00237,0.00841 0.00415,-0.00243 0.00861,-0.0082 0.00991,-0.012833 z m 0.024814,-0.021289 c 0.00152,-0.00536 -6.308e-4,-0.00509 -0.00549,7.037e-4 -0.0044,0.00524 -0.00553,0.00921 -0.00251,0.00882 0.00303,-3.902e-4 0.00662,-0.00468 0.008,-0.00952 z m 0.02906,-0.027225 c 0.0013,-0.00462 -0.0021,-0.00263 -0.00754,0.00442 -0.00546,0.00705 -0.00652,0.010842 -0.00237,0.00841 0.00415,-0.00243 0.00861,-0.0082 0.00991,-0.012833 z m 0.028919,-0.026823 c 0.0013,-0.00462 -0.0021,-0.00263 -0.00754,0.00442 -0.00546,0.00705 -0.00652,0.010842 -0.00237,0.00841 0.00415,-0.00243 0.00861,-0.0082 0.00991,-0.012833 z m 0.028919,-0.026823 c 0.0013,-0.00462 -0.0021,-0.00263 -0.00754,0.00442 -0.00546,0.00705 -0.00652,0.010842 -0.00237,0.00841 0.00415,-0.00243 0.00861,-0.0082 0.00991,-0.012833 z m 0.028919,-0.026823 c 0.0013,-0.00462 -0.0021,-0.00263 -0.00754,0.00442 -0.00546,0.00705 -0.00652,0.010842 -0.00237,0.00841 0.00415,-0.00243 0.00861,-0.0082 0.00991,-0.012833 z m 0.028919,-0.026823 c 0.0013,-0.00462 -0.0021,-0.00263 -0.00754,0.00442 -0.00546,0.00705 -0.00652,0.010842 -0.00237,0.00841 0.00415,-0.00243 0.00861,-0.0082 0.00991,-0.012833 z m 0.028919,-0.026823 c 0.0013,-0.00462 -0.0021,-0.00263 -0.00754,0.00442 -0.00546,0.00705 -0.00652,0.010842 -0.00237,0.00841 0.00415,-0.00243 0.00861,-0.0082 0.00991,-0.012833 z m 0.028919,-0.026822 c 0.0013,-0.00462 -0.0021,-0.00263 -0.00754,0.00442 -0.00546,0.00705 -0.00652,0.010842 -0.00237,0.00841 0.00415,-0.00243 0.00861,-0.0082 0.00991,-0.012833 z m 0.028919,-0.026823 c 0.0013,-0.00462 -0.00209,-0.00265 -0.00754,0.00442 -0.00546,0.00705 -0.00652,0.010842 -0.00237,0.00841 0.00415,-0.00243 0.00861,-0.0082 0.00991,-0.012833 z m 0.028919,-0.026823 c 0.0013,-0.00462 -0.00209,-0.00265 -0.00754,0.00442 -0.00546,0.00705 -0.00652,0.010842 -0.00237,0.00841 0.00415,-0.00243 0.00861,-0.0082 0.00991,-0.012833 z m 0.028919,-0.026823 c 0.0013,-0.00462 -0.00209,-0.00265 -0.00754,0.00442 -0.00546,0.00705 -0.00652,0.010842 -0.00237,0.00841 0.00415,-0.00243 0.00861,-0.0082 0.00991,-0.012833 z m 0.028919,-0.026823 c 0.0013,-0.00462 -0.00209,-0.00265 -0.00754,0.00442 -0.00546,0.00705 -0.00652,0.010842 -0.00237,0.00841 0.00415,-0.00243 0.00861,-0.0082 0.00991,-0.012833 z m 0.028919,-0.026823 c 0.0013,-0.00462 -0.00209,-0.00265 -0.00754,0.00442 -0.00546,0.00705 -0.00652,0.010842 -0.00237,0.00841 0.00415,-0.00243 0.00861,-0.0082 0.00991,-0.012833 z m 0.028928,-0.026816 c 0.0013,-0.00462 -0.00209,-0.00265 -0.00754,0.00442 -0.00546,0.00705 -0.00652,0.010842 -0.00237,0.00841 0.00415,-0.00243 0.00861,-0.0082 0.00991,-0.012833 z m 0.028919,-0.026823 c 0.0013,-0.00462 -0.00209,-0.00265 -0.00754,0.00442 -0.00546,0.00705 -0.00652,0.010842 -0.00237,0.00841 0.00415,-0.00243 0.00861,-0.0082 0.00991,-0.012833 z m 0.024814,-0.021289 c 0.00153,-0.00536 -6.305e-4,-0.00509 -0.0055,7.047e-4 -0.0044,0.00524 -0.00554,0.00921 -0.00251,0.00882 0.00303,-3.877e-4 0.00663,-0.00468 0.00801,-0.00952 z m 0.029061,-0.027225 c 0.0013,-0.00462 -0.00209,-0.00265 -0.00754,0.00442 -0.00546,0.00705 -0.00652,0.010842 -0.00237,0.00841 0.00415,-0.00243 0.00861,-0.0082 0.00991,-0.012833 z m 0.028919,-0.026823 c 0.0013,-0.00462 -0.00209,-0.00265 -0.00754,0.00442 -0.00546,0.00705 -0.00652,0.010842 -0.00237,0.00841 0.00415,-0.00243 0.00861,-0.0082 0.00991,-0.012833 z m 0.028919,-0.026823 c 0.0013,-0.00462 -0.00209,-0.00265 -0.00754,0.00442 -0.00546,0.00705 -0.00652,0.010842 -0.00237,0.00841 0.00415,-0.00243 0.00861,-0.0082 0.00991,-0.012833 z m 0.028919,-0.026823 c 0.0013,-0.00462 -0.00209,-0.00265 -0.00754,0.00442 -0.00546,0.00705 -0.00652,0.010842 -0.00237,0.00841 0.00415,-0.00243 0.00861,-0.0082 0.00991,-0.012833 z m 0.028919,-0.026823 c 0.0013,-0.00462 -0.00209,-0.00265 -0.00754,0.00442 -0.00546,0.00705 -0.00652,0.010842 -0.00237,0.00841 0.00415,-0.00243 0.00861,-0.0082 0.00991,-0.012833 z m 0.02892,-0.026822 c 0.0013,-0.00462 -0.00209,-0.00265 -0.00754,0.00442 -0.00546,0.00705 -0.00652,0.010842 -0.00237,0.00841 0.00415,-0.00243 0.00861,-0.0082 0.00991,-0.012833 z m 0.028919,-0.026823 c 0.0013,-0.00462 -0.00209,-0.00265 -0.00754,0.00442 -0.00546,0.00705 -0.00652,0.010842 -0.00237,0.00841 0.00415,-0.00243 0.00861,-0.0082 0.00991,-0.012833 z m 0.028919,-0.026823 c 0.0013,-0.00462 -0.00209,-0.00265 -0.00754,0.00442 -0.00546,0.00705 -0.00652,0.010842 -0.00237,0.00841 0.00415,-0.00243 0.00861,-0.0082 0.00991,-0.012833 z m 0.028919,-0.026823 c 0.0013,-0.00462 -0.00209,-0.00265 -0.00754,0.00442 -0.00546,0.00705 -0.00652,0.010842 -0.00237,0.00841 0.00415,-0.00243 0.00861,-0.0082 0.00991,-0.012833 z m 0.028919,-0.026823 c 0.0013,-0.00462 -0.00209,-0.00265 -0.00754,0.00442 -0.00546,0.00705 -0.00652,0.010842 -0.00237,0.00841 0.00415,-0.00243 0.00861,-0.0082 0.00991,-0.012833 z m 0.028919,-0.026823 c 0.0013,-0.00462 -0.00209,-0.00265 -0.00754,0.00442 -0.00546,0.00705 -0.00652,0.010842 -0.00237,0.00841 0.00415,-0.00243 0.00861,-0.0082 0.00991,-0.012833 z m 2.8924222,2.2233779 c -0.00239,-0.00409 -0.00925,-0.00953 -0.015246,-0.012083 -0.006,-0.00256 -0.00404,7.917e-4 0.00434,0.00743 0.00839,0.00664 0.013297,0.00874 0.01091,0.00465 z m -0.032026,-0.032993 c -0.00243,-0.00415 -0.0082,-0.00861 -0.012833,-0.00991 -0.00462,-0.0013 -0.00263,0.0021 0.00442,0.00754 0.00705,0.00546 0.010842,0.00652 0.00841,0.00237 z m 0.649028,-0.041948 c 0.3241879,-0.049132 0.5903296,-0.09056 0.5914302,-0.09206 0.0011,-0.0015 -0.1517358,-0.3597309 -0.3396362,-0.7960674 L 5.4171483,6.7121215 4.6129072,6.313346 C 3.9793882,5.9992213 3.8077204,5.9163269 3.8042115,5.9228452 c -0.00716,0.013311 -0.3118452,1.0648167 -0.3109464,1.0731287 7.151e-4,0.00661 1.4087418,1.4788225 1.4199542,1.4846779 0.00239,0.00125 0.2695927,-0.037928 0.5937766,-0.087062 z M 2.0264948,6.2183355 c 0.0013,-0.00462 -0.00209,-0.00265 -0.00754,0.00442 -0.00546,0.00705 -0.00652,0.010842 -0.00237,0.00841 0.00415,-0.00243 0.00861,-0.0082 0.00991,-0.012833 z M 4.831221,8.4067313 c -0.00239,-0.00409 -0.00925,-0.00953 -0.015246,-0.012083 -0.006,-0.00256 -0.00404,7.917e-4 0.00434,0.00743 0.00839,0.00664 0.013297,0.00874 0.01091,0.00465 z M 4.7992673,8.373847 c -0.00239,-0.00409 -0.00925,-0.00953 -0.015246,-0.012083 -0.006,-0.00256 -0.00404,7.918e-4 0.00434,0.00743 0.00839,0.00664 0.013297,0.00874 0.01091,0.00465 z M 4.7672413,8.340854 c -0.00243,-0.00415 -0.0082,-0.00861 -0.012833,-0.00991 -0.00462,-0.0013 -0.00263,0.0021 0.00442,0.00754 0.00705,0.00546 0.010842,0.00652 0.00841,0.00237 z M 4.7404903,8.312043 c -0.00239,-0.00409 -0.00925,-0.00953 -0.015246,-0.012083 -0.006,-0.00256 -0.00404,7.918e-4 0.00434,0.00743 0.00839,0.00664 0.013297,0.00874 0.01091,0.00465 z M 4.7085363,8.279159 c -0.00239,-0.00409 -0.00925,-0.00953 -0.015246,-0.012083 -0.006,-0.00255 -0.00404,7.918e-4 0.00434,0.00743 0.00839,0.00664 0.013297,0.00874 0.01091,0.00465 z M 4.6765823,8.246275 c -0.00239,-0.00409 -0.00925,-0.00953 -0.015246,-0.012083 -0.006,-0.00256 -0.00404,7.917e-4 0.00434,0.00743 0.00839,0.00664 0.013297,0.00874 0.01091,0.00465 z M 2.0554145,6.191513 c 0.0013,-0.00462 -0.00209,-0.00265 -0.00754,0.00442 -0.00546,0.00705 -0.00652,0.010842 -0.00237,0.00841 0.00415,-0.00243 0.00861,-0.0082 0.00991,-0.012833 z m 2.5891432,2.0217686 c -0.00243,-0.00415 -0.0082,-0.00861 -0.012833,-0.00991 -0.00462,-0.0013 -0.00263,0.0021 0.00442,0.00754 0.00705,0.00546 0.010842,0.00652 0.00841,0.00237 z m -0.02675,-0.028812 c -0.00239,-0.00409 -0.00925,-0.00953 -0.015246,-0.012083 -0.006,-0.00256 -0.00404,7.917e-4 0.00434,0.00743 0.00839,0.00664 0.013297,0.00874 0.01091,0.00465 z m -0.031954,-0.032885 c -0.00239,-0.00409 -0.00925,-0.00953 -0.015246,-0.012083 -0.006,-0.00256 -0.00404,7.918e-4 0.00434,0.00743 0.00839,0.00664 0.013297,0.00874 0.01091,0.00465 z m -0.031954,-0.032884 c -0.00239,-0.00409 -0.00925,-0.00953 -0.015246,-0.012083 -0.006,-0.00256 -0.00404,7.917e-4 0.00434,0.00743 0.00839,0.00664 0.013297,0.00874 0.01091,0.00465 z m -0.032026,-0.032993 c -0.00243,-0.00415 -0.0082,-0.00861 -0.012833,-0.00991 -0.00462,-0.0013 -0.00263,0.0021 0.00442,0.00754 0.00705,0.00546 0.010842,0.00652 0.00841,0.00237 z M 4.4951251,8.056897 c -0.00239,-0.00409 -0.00925,-0.00953 -0.015246,-0.012083 -0.006,-0.00256 -0.00404,7.917e-4 0.00434,0.00743 0.00839,0.00664 0.013297,0.00874 0.01091,0.00465 z M 2.0843342,6.1646906 c 0.0013,-0.00462 -0.00209,-0.00265 -0.00754,0.00442 -0.00546,0.00705 -0.00652,0.010842 -0.00237,0.00841 0.00415,-0.00243 0.00861,-0.0082 0.00991,-0.012833 z m 2.3788362,1.859322 c -0.00239,-0.00409 -0.00925,-0.00953 -0.015246,-0.012083 -0.006,-0.00256 -0.00404,7.917e-4 0.00434,0.00743 0.00839,0.00664 0.013297,0.00874 0.01091,0.00465 z m -0.032026,-0.032993 c -0.00243,-0.00415 -0.0082,-0.00861 -0.012833,-0.00991 -0.00462,-0.0013 -0.00263,0.0021 0.00442,0.00754 0.00705,0.00546 0.010842,0.00652 0.00841,0.00237 z m -0.026749,-0.028811 c -0.00239,-0.00409 -0.00925,-0.00953 -0.015246,-0.012083 -0.006,-0.00256 -0.00404,7.918e-4 0.00434,0.00743 0.00839,0.00664 0.013297,0.00874 0.01091,0.00465 z m -0.031954,-0.032884 c -0.00239,-0.00409 -0.00925,-0.00953 -0.015246,-0.012083 -0.006,-0.00256 -0.00404,7.917e-4 0.00434,0.00743 0.00839,0.00664 0.013297,0.00874 0.01091,0.00465 z M 4.340488,7.8964396 c -0.00239,-0.00409 -0.00925,-0.00953 -0.015246,-0.012083 -0.006,-0.00256 -0.00404,7.917e-4 0.00434,0.00743 0.00839,0.00664 0.013297,0.00874 0.01091,0.00465 z M 4.308462,7.8634466 c -0.00243,-0.00415 -0.0082,-0.00861 -0.012833,-0.00991 -0.00462,-0.0013 -0.00263,0.0021 0.00442,0.00754 0.00705,0.00546 0.010842,0.00652 0.00841,0.00237 z M 2.1132538,6.1378681 c 0.0013,-0.00462 -0.00209,-0.00265 -0.00754,0.00442 -0.00546,0.00705 -0.00652,0.010842 -0.00237,0.00841 0.00415,-0.00243 0.00861,-0.0082 0.00991,-0.012833 z m 2.1684573,1.6967675 c -0.00239,-0.00409 -0.00925,-0.00953 -0.015246,-0.012083 -0.006,-0.00256 -0.00404,7.918e-4 0.00434,0.00743 0.00839,0.00664 0.013297,0.00874 0.01091,0.00465 z m -0.031954,-0.032884 c -0.00239,-0.00409 -0.00925,-0.00953 -0.015246,-0.012083 -0.006,-0.00256 -0.00404,7.916e-4 0.00434,0.00743 0.00839,0.00664 0.013297,0.00874 0.01091,0.00465 z m -0.032026,-0.032993 c -0.00243,-0.00415 -0.0082,-0.00861 -0.012833,-0.00991 -0.00462,-0.0013 -0.00263,0.0021 0.00442,0.00754 0.00705,0.00546 0.010842,0.00652 0.00841,0.00237 z m -0.026749,-0.028811 c -0.00239,-0.00409 -0.00925,-0.00953 -0.015246,-0.012083 -0.006,-0.00255 -0.00404,7.917e-4 0.00434,0.00743 0.00839,0.00664 0.013297,0.00874 0.01091,0.00465 z m -0.031953,-0.032885 c -0.00239,-0.00409 -0.00925,-0.00953 -0.015246,-0.012083 -0.006,-0.00256 -0.00404,7.918e-4 0.00434,0.00743 0.00839,0.00664 0.013297,0.00874 0.01091,0.00465 z m -0.031954,-0.032884 c -0.00239,-0.00409 -0.00925,-0.00953 -0.015246,-0.012083 -0.006,-0.00256 -0.00404,7.916e-4 0.00434,0.00743 0.00839,0.00664 0.013297,0.00874 0.01091,0.00465 z m -0.032026,-0.032993 c -0.00243,-0.00415 -0.0082,-0.00861 -0.012833,-0.00991 -0.00462,-0.0013 -0.00263,0.0021 0.00442,0.00754 0.00705,0.00546 0.010842,0.00652 0.00841,0.00237 z m -0.026749,-0.028811 c -0.00239,-0.00409 -0.00925,-0.00953 -0.015246,-0.012083 -0.006,-0.00256 -0.00404,7.917e-4 0.00434,0.00743 0.00839,0.00664 0.013297,0.00874 0.01091,0.00465 z M 2.3416268,6.0951189 c 0.1100128,-0.014151 0.1988688,-0.026621 0.1974577,-0.027712 -0.0014,-0.00109 -0.092577,0.0096 -0.2025888,0.023748 -0.1100128,0.014151 -0.1988688,0.026621 -0.1974577,0.027712 0.0014,0.00109 0.092575,-0.0096 0.2025888,-0.023748 z m 1.6947175,1.4843712 c -0.00239,-0.00409 -0.00925,-0.00953 -0.015246,-0.012083 -0.006,-0.00256 -0.00404,7.918e-4 0.00434,0.00743 0.00839,0.00664 0.013297,0.00874 0.01091,0.00465 z M 4.0043907,7.546605 c -0.00239,-0.00409 -0.00925,-0.00953 -0.015246,-0.012083 -0.006,-0.00256 -0.00404,7.917e-4 0.00434,0.00743 0.00839,0.00664 0.013297,0.00874 0.01091,0.00465 z M 3.9723647,7.513612 c -0.00243,-0.00415 -0.0082,-0.00861 -0.012833,-0.00991 -0.00462,-0.0013 -0.00263,0.0021 0.00442,0.00754 0.00705,0.00546 0.010842,0.00652 0.00841,0.00237 z M 3.9456157,7.484801 c -0.00239,-0.00409 -0.00925,-0.00953 -0.015246,-0.012083 -0.006,-0.00256 -0.00404,7.917e-4 0.00434,0.00743 0.00839,0.00664 0.013297,0.00874 0.01091,0.00465 z M 3.9136617,7.451916 c -0.00239,-0.00409 -0.00925,-0.00953 -0.015246,-0.012083 -0.006,-0.00256 -0.00404,7.917e-4 0.00434,0.00743 0.00839,0.00664 0.013297,0.00874 0.01091,0.00465 z M 3.881636,7.4189229 c -0.00243,-0.00415 -0.0082,-0.00861 -0.012833,-0.00991 -0.00462,-0.0013 -0.00263,0.0021 0.00442,0.00754 0.00705,0.00546 0.010842,0.00652 0.00841,0.00237 z M 3.854887,7.3901119 c -0.00239,-0.00409 -0.00925,-0.00953 -0.015246,-0.012083 -0.006,-0.00256 -0.00404,7.917e-4 0.00434,0.00743 0.00839,0.00664 0.013297,0.00874 0.01091,0.00465 z M 3.822933,7.3572278 c -0.00239,-0.00409 -0.00925,-0.00953 -0.015247,-0.012083 -0.006,-0.00255 -0.00405,7.898e-4 0.00434,0.00743 0.00839,0.00664 0.013297,0.00874 0.01091,0.00465 z M 3.790979,7.3243428 c -0.00239,-0.00409 -0.00925,-0.00953 -0.015246,-0.012083 -0.006,-0.00255 -0.00405,7.898e-4 0.00434,0.00743 0.00839,0.00664 0.013297,0.00874 0.01091,0.00465 z M 3.758953,7.2913498 c -0.00243,-0.00415 -0.0082,-0.00861 -0.012833,-0.00991 -0.00462,-0.0013 -0.00265,0.00209 0.00442,0.00754 0.00705,0.00546 0.010842,0.00652 0.00841,0.00237 z m -0.026752,-0.02881 c -0.00239,-0.00409 -0.00925,-0.00953 -0.015246,-0.012083 -0.006,-0.00255 -0.00405,7.897e-4 0.00434,0.00743 0.00839,0.00664 0.013297,0.00874 0.01091,0.00465 z M 3.700247,7.2296558 c -0.00239,-0.00409 -0.00925,-0.00953 -0.015246,-0.012083 -0.006,-0.00255 -0.00405,7.897e-4 0.00434,0.00743 0.00839,0.00664 0.013297,0.00874 0.01091,0.00465 z M 3.668293,7.1967708 c -0.00239,-0.00409 -0.00925,-0.00953 -0.015246,-0.012083 -0.006,-0.00255 -0.00405,7.898e-4 0.00434,0.00743 0.00839,0.00664 0.013297,0.00874 0.01091,0.00465 z M 3.636267,7.1637778 c -0.00243,-0.00415 -0.0082,-0.00861 -0.012833,-0.00991 -0.00462,-0.0013 -0.00265,0.00209 0.00442,0.00754 0.00705,0.00546 0.010842,0.00652 0.00841,0.00237 z M 3.609518,7.1349668 c -0.00239,-0.00409 -0.00925,-0.00953 -0.015246,-0.012083 -0.006,-0.00255 -0.00405,7.897e-4 0.00434,0.00743 0.00839,0.00664 0.013297,0.00874 0.01091,0.00465 z M 3.577564,7.1020818 c -0.00239,-0.00409 -0.00925,-0.00953 -0.015246,-0.012083 -0.006,-0.00255 -0.00405,7.899e-4 0.00434,0.00743 0.00839,0.00664 0.013297,0.00874 0.01091,0.00465 z M 3.545538,7.0690904 c -0.00243,-0.00415 -0.0082,-0.00861 -0.012833,-0.00991 -0.00462,-0.0013 -0.00265,0.00209 0.00442,0.00754 0.00705,0.00546 0.010842,0.00652 0.00841,0.00237 z M 3.518789,7.0402784 c -0.00239,-0.00409 -0.00925,-0.00953 -0.015246,-0.012083 -0.006,-0.00255 -0.00405,7.897e-4 0.00434,0.00743 0.00839,0.00664 0.013297,0.00874 0.01091,0.00465 z M 2.9641157,6.0106688 c 0.2251012,-0.028888 0.4081202,-0.053416 0.4067091,-0.054507 -0.0014,-0.00109 -0.1867392,0.021653 -0.4118402,0.050541 -0.2251012,0.028888 -0.4081202,0.053416 -0.4067091,0.054505 0.0014,0.00109 0.1867391,-0.021653 0.4118402,-0.050541 z m 0.6224889,-0.08445 c 0.1100128,-0.014151 0.1988688,-0.026621 0.1974577,-0.027712 -0.0014,-0.00109 -0.092575,0.0096 -0.2025888,0.023748 -0.1100128,0.014151 -0.1988688,0.026621 -0.1974577,0.027712 0.0014,0.00109 0.092575,-0.0096 0.2025888,-0.023748 z m 0.2504329,-0.00859 c -0.00243,-0.00415 -0.0082,-0.00861 -0.012833,-0.00991 -0.00462,-0.0013 -0.00265,0.00209 0.00442,0.00754 0.00705,0.00546 0.010842,0.00652 0.00841,0.00237 z m 0.02962,0.014692 c -0.00243,-0.00415 -0.0082,-0.00861 -0.012833,-0.00991 -0.00462,-0.0013 -0.00265,0.00209 0.00442,0.00754 0.00705,0.00546 0.010842,0.00652 0.00841,0.00237 z m 0.02962,0.014692 c -0.00243,-0.00415 -0.0082,-0.00861 -0.012833,-0.00991 -0.00462,-0.0013 -0.00265,0.00209 0.00442,0.00754 0.00705,0.00546 0.010842,0.00652 0.00841,0.00237 z m 0.02962,0.014692 c -0.00243,-0.00415 -0.0082,-0.00861 -0.012833,-0.00991 -0.00462,-0.0013 -0.00265,0.00209 0.00442,0.00754 0.00705,0.00546 0.010842,0.00652 0.00841,0.00237 z m 0.02962,0.014692 c -0.00243,-0.00415 -0.0082,-0.00861 -0.012833,-0.00991 -0.00462,-0.0013 -0.00265,0.00209 0.00442,0.00754 0.00705,0.00546 0.010842,0.00652 0.00841,0.00237 z m 0.02962,0.014692 c -0.00243,-0.00415 -0.0082,-0.00861 -0.012833,-0.00991 -0.00462,-0.0013 -0.00265,0.00209 0.00442,0.00754 0.00705,0.00546 0.010842,0.00652 0.00841,0.00237 z m 0.02962,0.014692 c -0.00243,-0.00415 -0.0082,-0.00861 -0.012833,-0.00991 -0.00462,-0.0013 -0.00265,0.00209 0.00442,0.00754 0.00705,0.00546 0.010842,0.00652 0.00841,0.00237 z m 0.02962,0.014692 c -0.00243,-0.00415 -0.0082,-0.00861 -0.012833,-0.00991 -0.00462,-0.0013 -0.00265,0.00209 0.00442,0.00754 0.00705,0.00546 0.010842,0.00652 0.00841,0.00237 z M 4.074,6.0351638 c -0.00243,-0.00415 -0.0082,-0.00861 -0.012833,-0.00991 -0.00462,-0.0013 -0.00265,0.00209 0.00442,0.00754 0.00705,0.00546 0.010842,0.00652 0.00841,0.00237 z m 0.02962,0.014692 c -0.00243,-0.00415 -0.0082,-0.00861 -0.012833,-0.00991 -0.00462,-0.0013 -0.00265,0.00209 0.00442,0.00754 0.00705,0.00546 0.010842,0.00652 0.00841,0.00237 z m 0.02962,0.014692 c -0.00243,-0.00415 -0.0082,-0.00861 -0.012833,-0.00991 -0.00462,-0.0013 -0.00265,0.00209 0.00442,0.00754 0.00705,0.00546 0.010842,0.00652 0.00841,0.00237 z m 0.029622,0.014692 c -0.00243,-0.00415 -0.0082,-0.00861 -0.012833,-0.00991 -0.00462,-0.0013 -0.00265,0.00209 0.00442,0.00754 0.00705,0.00546 0.010842,0.00652 0.00841,0.00237 z m 0.02962,0.014692 c -0.00243,-0.00415 -0.0082,-0.00861 -0.012833,-0.00991 -0.00462,-0.0013 -0.00265,0.00209 0.00442,0.00754 0.00705,0.00546 0.010842,0.00652 0.00841,0.00237 z m 0.02962,0.014692 c -0.00243,-0.00415 -0.0082,-0.00861 -0.012833,-0.00991 -0.00462,-0.0013 -0.00265,0.00209 0.00442,0.00754 0.00705,0.00546 0.010842,0.00652 0.00841,0.00237 z m 0.02962,0.014692 c -0.00243,-0.00415 -0.0082,-0.00861 -0.012833,-0.00991 -0.00462,-0.0013 -0.00265,0.00209 0.00442,0.00754 0.00705,0.00546 0.010842,0.00652 0.00841,0.00237 z m 0.02962,0.014692 c -0.00243,-0.00415 -0.0082,-0.00861 -0.012833,-0.00991 -0.00462,-0.0013 -0.00265,0.00209 0.00442,0.00754 0.00705,0.00546 0.010842,0.00652 0.00841,0.00237 z m 0.02962,0.014692 c -0.00243,-0.00415 -0.0082,-0.00861 -0.012833,-0.00991 -0.00462,-0.0013 -0.00265,0.00209 0.00442,0.00754 0.00705,0.00546 0.010842,0.00652 0.00841,0.00237 z m 0.029622,0.014692 c -0.00243,-0.00415 -0.0082,-0.00861 -0.012833,-0.00991 -0.00462,-0.0013 -0.00265,0.00209 0.00442,0.00754 0.00705,0.00546 0.010842,0.00652 0.00841,0.00237 z m 0.02962,0.014692 c -0.00243,-0.00415 -0.0082,-0.00861 -0.012833,-0.00991 -0.00462,-0.0013 -0.00265,0.00209 0.00442,0.00754 0.00705,0.00546 0.010842,0.00652 0.00841,0.00237 z m 0.02962,0.014692 c -0.00243,-0.00415 -0.0082,-0.00861 -0.012833,-0.00991 -0.00462,-0.0013 -0.00265,0.00209 0.00442,0.00754 0.00705,0.00546 0.010842,0.00652 0.00841,0.00237 z m 0.02962,0.014692 c -0.00243,-0.00415 -0.0082,-0.00861 -0.012833,-0.00991 -0.00462,-0.0013 -0.00265,0.00209 0.00442,0.00754 0.00705,0.00546 0.010842,0.00652 0.00841,0.00237 z m 0.02962,0.014692 c -0.00243,-0.00415 -0.0082,-0.00861 -0.012833,-0.00991 -0.00462,-0.0013 -0.00265,0.00209 0.00442,0.00754 0.00705,0.00546 0.010842,0.00652 0.00841,0.00237 z m 0.02962,0.014692 c -0.00243,-0.00415 -0.0082,-0.00861 -0.012833,-0.00991 -0.00462,-0.0013 -0.00265,0.00209 0.00442,0.00754 0.00705,0.00546 0.010842,0.00652 0.00841,0.00237 z m 0.02962,0.014692 c -0.00243,-0.00415 -0.0082,-0.00861 -0.012833,-0.00991 -0.00462,-0.0013 -0.00265,0.00209 0.00442,0.00754 0.00705,0.00546 0.010842,0.00652 0.00841,0.00237 z m 0.02962,0.014692 c -0.00243,-0.00415 -0.0082,-0.00861 -0.012833,-0.00991 -0.00462,-0.0013 -0.00265,0.00209 0.00442,0.00754 0.00705,0.00546 0.010842,0.00652 0.00841,0.00237 z m 0.02962,0.014692 c -0.00243,-0.00415 -0.0082,-0.00861 -0.012833,-0.00991 -0.00462,-0.0013 -0.00265,0.00209 0.00442,0.00754 0.00705,0.00546 0.010842,0.00652 0.00841,0.00237 z m 0.02962,0.014692 c -0.00243,-0.00415 -0.0082,-0.00861 -0.012833,-0.00991 -0.00462,-0.0013 -0.00265,0.00209 0.00442,0.00754 0.00705,0.00546 0.010842,0.00652 0.00841,0.00237 z m 0.029622,0.014692 c -0.00243,-0.00415 -0.0082,-0.00861 -0.012833,-0.00991 -0.00462,-0.0013 -0.00263,0.0021 0.00442,0.00754 0.00705,0.00546 0.010842,0.00652 0.00841,0.00237 z m 0.029622,0.014691 c -0.00243,-0.00415 -0.0082,-0.00861 -0.012833,-0.00991 -0.00462,-0.0013 -0.00263,0.0021 0.00442,0.00754 0.00705,0.00546 0.010842,0.00652 0.00841,0.00237 z m 0.02962,0.014692 c -0.00243,-0.00415 -0.0082,-0.00861 -0.012833,-0.00991 -0.00462,-0.0013 -0.00263,0.0021 0.00442,0.00754 0.00705,0.00546 0.010842,0.00652 0.00841,0.00237 z m 0.02962,0.014692 c -0.00243,-0.00415 -0.0082,-0.00861 -0.012833,-0.00991 -0.00462,-0.0013 -0.00263,0.0021 0.00442,0.00754 0.00705,0.00546 0.010842,0.00652 0.00841,0.00237 z m 0.02962,0.014692 c -0.00243,-0.00415 -0.0082,-0.00861 -0.012833,-0.00991 -0.00462,-0.0013 -0.00263,0.0021 0.00442,0.00754 0.00705,0.00546 0.010842,0.00652 0.00841,0.00237 z m 0.02962,0.014692 c -0.00243,-0.00415 -0.0082,-0.00861 -0.012833,-0.00991 -0.00462,-0.0013 -0.00263,0.0021 0.00442,0.00754 0.00705,0.00546 0.010842,0.00652 0.00841,0.00237 z m 0.02962,0.014692 c -0.00243,-0.00415 -0.0082,-0.00861 -0.012833,-0.00991 -0.00462,-0.0013 -0.00263,0.0021 0.00442,0.00754 0.00705,0.00546 0.010842,0.00652 0.00841,0.00237 z m 0.02962,0.014692 c -0.00243,-0.00415 -0.0082,-0.00861 -0.012833,-0.00991 -0.00462,-0.0013 -0.00263,0.0021 0.00442,0.00754 0.00705,0.00546 0.010842,0.00652 0.00841,0.00237 z m 0.02962,0.014692 c -0.00243,-0.00415 -0.0082,-0.00861 -0.012833,-0.00991 -0.00462,-0.0013 -0.00263,0.0021 0.00442,0.00754 0.00705,0.00546 0.010842,0.00652 0.00841,0.00237 z m 0.02962,0.014692 c -0.00243,-0.00415 -0.0082,-0.00861 -0.012833,-0.00991 -0.00462,-0.0013 -0.00263,0.0021 0.00442,0.00754 0.00705,0.00546 0.010842,0.00652 0.00841,0.00237 z m 0.02962,0.014692 c -0.00243,-0.00415 -0.0082,-0.00861 -0.012833,-0.00991 -0.00462,-0.0013 -0.00263,0.0021 0.00442,0.00754 0.00705,0.00546 0.010842,0.00652 0.00841,0.00237 z m 0.029622,0.014692 c -0.00243,-0.00415 -0.0082,-0.00861 -0.012833,-0.00991 -0.00462,-0.0013 -0.00263,0.0021 0.00442,0.00754 0.00705,0.00546 0.010842,0.00652 0.00841,0.00237 z m 0.02962,0.014692 c -0.00243,-0.00415 -0.0082,-0.00861 -0.012833,-0.00991 -0.00462,-0.0013 -0.00263,0.0021 0.00442,0.00754 0.00705,0.00546 0.010842,0.00652 0.00841,0.00237 z m 0.02962,0.014692 c -0.00243,-0.00415 -0.0082,-0.00861 -0.012833,-0.00991 -0.00462,-0.0013 -0.00263,0.0021 0.00442,0.00754 0.00705,0.00546 0.010842,0.00652 0.00841,0.00237 z m 0.02962,0.014692 c -0.00243,-0.00415 -0.0082,-0.00861 -0.012833,-0.00991 -0.00462,-0.0013 -0.00263,0.0021 0.00442,0.00754 0.00705,0.00546 0.010842,0.00652 0.00841,0.00237 z m 0.029622,0.014692 c -0.00243,-0.00415 -0.0082,-0.00861 -0.012833,-0.00991 -0.00462,-0.0013 -0.00263,0.0021 0.00442,0.00754 0.00705,0.00546 0.010842,0.00652 0.00841,0.00237 z m 0.02962,0.014692 c -0.00243,-0.00415 -0.0082,-0.00861 -0.012833,-0.00991 -0.00462,-0.0013 -0.00263,0.0021 0.00442,0.00754 0.00705,0.00546 0.010842,0.00652 0.00841,0.00237 z m 0.02962,0.014692 c -0.00243,-0.00415 -0.0082,-0.00861 -0.012833,-0.00991 -0.00462,-0.0013 -0.00263,0.0021 0.00442,0.00754 0.00705,0.00546 0.010842,0.00652 0.00841,0.00237 z m 0.02962,0.014692 c -0.00243,-0.00415 -0.0082,-0.00861 -0.012833,-0.00991 -0.00462,-0.0013 -0.00263,0.0021 0.00442,0.00754 0.00705,0.00546 0.010842,0.00652 0.00841,0.00237 z m 0.02962,0.014692 c -0.00243,-0.00415 -0.0082,-0.00861 -0.012833,-0.00991 -0.00462,-0.0013 -0.00263,0.0021 0.00442,0.00754 0.00705,0.00546 0.010842,0.00652 0.00841,0.00237 z m 0.02962,0.014692 c -0.00243,-0.00415 -0.0082,-0.00861 -0.012833,-0.00991 -0.00462,-0.0013 -0.00263,0.0021 0.00442,0.00754 0.00705,0.00546 0.010842,0.00652 0.00841,0.00237 z m 0.029622,0.014692 c -0.00243,-0.00415 -0.0082,-0.00861 -0.012833,-0.00991 -0.00462,-0.0013 -0.00263,0.0021 0.00442,0.00754 0.00705,0.00546 0.010842,0.00652 0.00841,0.00237 z m 0.02962,0.014692 c -0.00243,-0.00415 -0.0082,-0.00861 -0.012833,-0.00991 -0.00462,-0.0013 -0.00263,0.0021 0.00442,0.00754 0.00705,0.00546 0.010842,0.00652 0.00841,0.00237 z m 0.02962,0.014692 c -0.00243,-0.00415 -0.0082,-0.00861 -0.012833,-0.00991 -0.00462,-0.0013 -0.00263,0.0021 0.00442,0.00754 0.00705,0.00546 0.010842,0.00652 0.00841,0.00237 z m 0.029622,0.014691 c -0.00243,-0.00415 -0.0082,-0.00861 -0.012833,-0.00991 -0.00462,-0.0013 -0.00263,0.0021 0.00442,0.00754 0.00705,0.00546 0.010842,0.00652 0.00841,0.00237 z m 0.02962,0.014692 c -0.00243,-0.00415 -0.0082,-0.00861 -0.012833,-0.00991 -0.00462,-0.0013 -0.00263,0.0021 0.00442,0.00754 0.00705,0.00546 0.010842,0.00652 0.00841,0.00237 z m 0.02962,0.014692 c -0.00243,-0.00415 -0.0082,-0.00861 -0.012833,-0.00991 -0.00462,-0.0013 -0.00263,0.0021 0.00442,0.00754 0.00705,0.00546 0.010842,0.00652 0.00841,0.00237 z"
     id="path3098"
     inkscape:connector-curvature="0" /></g></svg>